<?xml version="1.0" encoding="UTF-8" standalone="no"?>
<!-- Created with Inkscape (http://www.inkscape.org/) -->

<svg
   width="27.301037mm"
   height="37.308968mm"
   viewBox="0 0 27.301037 37.308968"
   version="1.1"
   id="svg1"
   sodipodi:docname="eggpwm.svg"
   inkscape:version="1.4.2 (ebf0e940, 2025-05-08)"
   xmlns:inkscape="http://www.inkscape.org/namespaces/inkscape"
   xmlns:sodipodi="http://sodipodi.sourceforge.net/DTD/sodipodi-0.dtd"
   xmlns="http://www.w3.org/2000/svg"
   xmlns:svg="http://www.w3.org/2000/svg">
  <sodipodi:namedview
     id="namedview1"
     pagecolor="#ffffff"
     bordercolor="#000000"
     borderopacity="0.25"
     inkscape:showpageshadow="2"
     inkscape:pageopacity="0.0"
     inkscape:pagecheckerboard="0"
     inkscape:deskcolor="#d1d1d1"
     inkscape:document-units="mm"
     inkscape:zoom="3.5954827"
     inkscape:cx="36.851797"
     inkscape:cy="94.980293"
     inkscape:window-width="1520"
     inkscape:window-height="1186"
     inkscape:window-x="581"
     inkscape:window-y="50"
     inkscape:window-maximized="0"
     inkscape:current-layer="layer1" />
  <defs
     id="defs1" />
  <g
     inkscape:label="Layer 1"
     inkscape:groupmode="layer"
     id="layer1"
     transform="translate(-77.04632,-82.565418)">
    <path
       d="m 98.499931,87.714026 v 25.825814 c 0.573864,-0.68397 1.071428,-1.41847 1.500169,-2.1916 V 89.722172 c -0.433905,-0.759088 -0.932912,-1.43584 -1.500169,-2.008146 z"
       style="stroke-width:2"
       id="path43"
       inkscape:export-filename="eggpwm.png"
       inkscape:export-xdpi="96"
       inkscape:export-ydpi="96" />
    <path
       d="M 93.000008,85.801481 V 116.9324 c 0.698531,-0.13971 1.372453,-0.34614 1.999878,-0.62012 V 85.820085 c -0.658501,-0.113685 -1.327819,-0.114556 -1.999878,-0.0186 z"
       style="stroke-width:2"
       id="path42" />
    <path
       d="m 86.999858,88.942891 v 27.600899 c 0.944021,0.32747 1.965888,0.52397 3.000333,0.58704 V 86.826225 c -1.034613,0.547065 -2.045566,1.272783 -3.000333,2.116666 z"
       style="stroke-width:2"
       id="path41" />
    <path
       d="m 81.000224,97.448832 v 12.253518 c 0.780089,2.34251 2.005168,4.36522 3.63647,5.60379 0.117754,0.0894 0.238957,0.17538 0.363286,0.25838 V 90.968091 c -1.762338,2.027246 -3.18823,4.365225 -3.999756,6.480741 z"
       style="stroke-width:2"
       id="path40" />
    <ellipse
       style="fill:#000000;fill-opacity:1;stroke-width:3.8541"
       id="path1"
       cx="90.696838"
       cy="101.2199"
       rx="13.650518"
       ry="18.654484"
       inkscape:export-filename="egg_nofill.png"
       inkscape:export-xdpi="96"
       inkscape:export-ydpi="96" />
  </g>
</svg>
